<mxfile host="app.diagrams.net" modified="2022-03-28T05:28:24.740Z" agent="5.0 (Macintosh; Intel Mac OS X 10_15_7) AppleWebKit/537.36 (KHTML, like Gecko) Chrome/99.0.4844.83 Safari/537.36" etag="ilfc1IPcpE8_lbGDo_WK" version="17.2.4" type="github">
  <diagram name="Page-1" id="aaaa8250-4180-3840-79b5-4cada1eebb92">
    <mxGraphModel dx="946" dy="562" grid="1" gridSize="10" guides="1" tooltips="1" connect="1" arrows="1" fold="1" page="1" pageScale="1" pageWidth="850" pageHeight="1100" background="none" math="0" shadow="0">
      <root>
        <mxCell id="0" />
        <mxCell id="1" parent="0" />
        <mxCell id="B52o-jHETOvUlBoRqFKK-1" value="" style="sketch=0;aspect=fixed;pointerEvents=1;shadow=0;dashed=0;html=1;strokeColor=none;labelPosition=center;verticalLabelPosition=bottom;verticalAlign=top;align=center;fillColor=#00188D;shape=mxgraph.mscae.enterprise.application" vertex="1" parent="1">
          <mxGeometry x="190" y="99.9" width="60" height="40.8" as="geometry" />
        </mxCell>
        <mxCell id="B52o-jHETOvUlBoRqFKK-2" value="" style="sketch=0;aspect=fixed;pointerEvents=1;shadow=0;dashed=0;html=1;strokeColor=none;labelPosition=center;verticalLabelPosition=bottom;verticalAlign=top;align=center;fillColor=#00188D;shape=mxgraph.mscae.enterprise.internet_hollow" vertex="1" parent="1">
          <mxGeometry x="940" y="99.9" width="64.84" height="40.2" as="geometry" />
        </mxCell>
        <mxCell id="B52o-jHETOvUlBoRqFKK-3" value="河东云端" style="text;html=1;align=center;verticalAlign=middle;resizable=0;points=[];autosize=1;strokeColor=none;fillColor=none;" vertex="1" parent="1">
          <mxGeometry x="942.4200000000001" y="70" width="60" height="20" as="geometry" />
        </mxCell>
        <mxCell id="B52o-jHETOvUlBoRqFKK-4" value="三方" style="text;html=1;align=center;verticalAlign=middle;resizable=0;points=[];autosize=1;strokeColor=none;fillColor=none;" vertex="1" parent="1">
          <mxGeometry x="195" y="70" width="40" height="20" as="geometry" />
        </mxCell>
        <mxCell id="B52o-jHETOvUlBoRqFKK-6" value="访问授权页面，同时在路径后面加上回调地址" style="text;html=1;align=center;verticalAlign=middle;resizable=0;points=[];autosize=1;strokeColor=none;fillColor=none;" vertex="1" parent="1">
          <mxGeometry x="250" y="110" width="260" height="20" as="geometry" />
        </mxCell>
        <mxCell id="B52o-jHETOvUlBoRqFKK-7" value="" style="sketch=0;aspect=fixed;pointerEvents=1;shadow=0;dashed=0;html=1;strokeColor=none;labelPosition=center;verticalLabelPosition=bottom;verticalAlign=top;align=center;fillColor=#00188D;shape=mxgraph.azure.laptop" vertex="1" parent="1">
          <mxGeometry x="520" y="105.8" width="75" height="45" as="geometry" />
        </mxCell>
        <mxCell id="B52o-jHETOvUlBoRqFKK-10" value="访问页面，输入 on pro 账号密码，选择住宅授权" style="text;html=1;align=center;verticalAlign=middle;resizable=0;points=[];autosize=1;strokeColor=none;fillColor=none;" vertex="1" parent="1">
          <mxGeometry x="630" y="105.8" width="270" height="20" as="geometry" />
        </mxCell>
        <mxCell id="B52o-jHETOvUlBoRqFKK-11" value="跳转到回调地址页面，同时返回授权码和住宅信息" style="text;html=1;align=center;verticalAlign=middle;resizable=0;points=[];autosize=1;strokeColor=none;fillColor=none;" vertex="1" parent="1">
          <mxGeometry x="417.5" y="210" width="280" height="20" as="geometry" />
        </mxCell>
        <mxCell id="B52o-jHETOvUlBoRqFKK-12" value="根据code获取访问接口的凭证" style="text;html=1;align=center;verticalAlign=middle;resizable=0;points=[];autosize=1;strokeColor=none;fillColor=none;" vertex="1" parent="1">
          <mxGeometry x="472.5" y="300" width="170" height="20" as="geometry" />
        </mxCell>
        <mxCell id="B52o-jHETOvUlBoRqFKK-14" value="通过接口凭证和住宅信息获取设备列表" style="text;html=1;align=center;verticalAlign=middle;resizable=0;points=[];autosize=1;strokeColor=none;fillColor=none;" vertex="1" parent="1">
          <mxGeometry x="460" y="370" width="220" height="20" as="geometry" />
        </mxCell>
        <mxCell id="B52o-jHETOvUlBoRqFKK-15" value="授权页面" style="text;html=1;align=center;verticalAlign=middle;resizable=0;points=[];autosize=1;strokeColor=none;fillColor=none;" vertex="1" parent="1">
          <mxGeometry x="510" y="70" width="60" height="20" as="geometry" />
        </mxCell>
        <mxCell id="B52o-jHETOvUlBoRqFKK-16" value="控制设备" style="text;html=1;align=center;verticalAlign=middle;resizable=0;points=[];autosize=1;strokeColor=none;fillColor=none;" vertex="1" parent="1">
          <mxGeometry x="527.5" y="450" width="60" height="20" as="geometry" />
        </mxCell>
        <mxCell id="B52o-jHETOvUlBoRqFKK-17" value="状态推送" style="text;html=1;align=center;verticalAlign=middle;resizable=0;points=[];autosize=1;strokeColor=none;fillColor=none;" vertex="1" parent="1">
          <mxGeometry x="527.5" y="530" width="60" height="20" as="geometry" />
        </mxCell>
        <mxCell id="B52o-jHETOvUlBoRqFKK-20" value="" style="endArrow=classic;html=1;rounded=0;" edge="1" parent="1">
          <mxGeometry width="50" height="50" relative="1" as="geometry">
            <mxPoint x="970" y="240" as="sourcePoint" />
            <mxPoint x="220" y="240" as="targetPoint" />
          </mxGeometry>
        </mxCell>
        <mxCell id="B52o-jHETOvUlBoRqFKK-21" value="" style="endArrow=classic;html=1;rounded=0;" edge="1" parent="1">
          <mxGeometry width="50" height="50" relative="1" as="geometry">
            <mxPoint x="220" y="320" as="sourcePoint" />
            <mxPoint x="970" y="320" as="targetPoint" />
          </mxGeometry>
        </mxCell>
        <mxCell id="B52o-jHETOvUlBoRqFKK-22" value="" style="endArrow=classic;html=1;rounded=0;" edge="1" parent="1">
          <mxGeometry width="50" height="50" relative="1" as="geometry">
            <mxPoint x="220" y="400" as="sourcePoint" />
            <mxPoint x="970" y="400" as="targetPoint" />
          </mxGeometry>
        </mxCell>
        <mxCell id="B52o-jHETOvUlBoRqFKK-23" value="" style="endArrow=classic;html=1;rounded=0;" edge="1" parent="1">
          <mxGeometry width="50" height="50" relative="1" as="geometry">
            <mxPoint x="220" y="480" as="sourcePoint" />
            <mxPoint x="970" y="480" as="targetPoint" />
          </mxGeometry>
        </mxCell>
        <mxCell id="B52o-jHETOvUlBoRqFKK-24" value="" style="endArrow=classic;html=1;rounded=0;" edge="1" parent="1">
          <mxGeometry width="50" height="50" relative="1" as="geometry">
            <mxPoint x="970" y="560" as="sourcePoint" />
            <mxPoint x="220" y="560" as="targetPoint" />
          </mxGeometry>
        </mxCell>
        <mxCell id="B52o-jHETOvUlBoRqFKK-28" value="" style="endArrow=none;html=1;rounded=0;entryX=0.5;entryY=1;entryDx=0;entryDy=0;entryPerimeter=0;" edge="1" parent="1" target="B52o-jHETOvUlBoRqFKK-1">
          <mxGeometry width="50" height="50" relative="1" as="geometry">
            <mxPoint x="220" y="620" as="sourcePoint" />
            <mxPoint x="200" y="230" as="targetPoint" />
          </mxGeometry>
        </mxCell>
        <mxCell id="B52o-jHETOvUlBoRqFKK-29" value="" style="endArrow=none;html=1;rounded=0;entryX=0.5;entryY=1;entryDx=0;entryDy=0;entryPerimeter=0;" edge="1" parent="1" target="B52o-jHETOvUlBoRqFKK-2">
          <mxGeometry width="50" height="50" relative="1" as="geometry">
            <mxPoint x="971.92" y="629.3" as="sourcePoint" />
            <mxPoint x="971.92" y="149.99999999999994" as="targetPoint" />
          </mxGeometry>
        </mxCell>
      </root>
    </mxGraphModel>
  </diagram>
</mxfile>
